<svg width="100" height="100" viewBox="0 0 100 100" fill="none" xmlns="http://www.w3.org/2000/svg">
<path d="M50.1084 8.33338C29.7206 8.33076 12.3409 23.1166 9.07669 43.2414C5.81246 63.3662 17.6275 82.8875 36.9709 89.3292C39.0542 89.7042 39.8 88.425 39.8 87.3251C39.8 86.3375 39.7667 83.7209 39.7542 80.2417C28.1917 82.7417 25.75 74.6667 25.75 74.6667C24.9888 72.154 23.3524 69.9973 21.1375 68.5876C17.3875 66.0084 21.425 66.0667 21.425 66.0667C24.0945 66.4327 26.444 68.0144 27.7875 70.35C28.9248 72.4178 30.8407 73.9457 33.1096 74.5943C35.3786 75.2429 37.8126 74.9585 39.8709 73.8042C40.0643 71.6959 41.0023 69.7254 42.5167 68.2459C33.2917 67.2 23.5917 63.6334 23.5917 47.7042C23.5405 43.5842 25.0704 39.6013 27.8667 36.575C26.6015 32.9888 26.7505 29.0553 28.2834 25.575C28.2834 25.575 31.7709 24.4542 39.7084 29.8292C46.5161 27.9626 53.7007 27.9626 60.5084 29.8292C68.45 24.45 71.9334 25.575 71.9334 25.575C73.4733 29.0536 73.6224 32.9899 72.35 36.575C75.1565 39.601 76.6852 43.5944 76.6167 47.7209C76.6167 63.6917 66.9084 67.2001 57.65 68.2292C59.6472 70.2711 60.6715 73.0723 60.4625 75.9209C60.4625 81.4792 60.4125 85.9625 60.4125 87.3251C60.4125 88.4375 61.1542 89.7292 63.275 89.3209C82.6103 82.8682 94.4127 63.3458 91.1418 43.2264C87.8708 23.1069 70.4919 8.32871 50.1084 8.33338Z" fill="white"/>
</svg>
