<svg width="100" height="100" viewBox="0 0 100 100" fill="none" xmlns="http://www.w3.org/2000/svg">
<path d="M50.0083 87.6709C39.7583 87.6709 38.55 87.6167 34.55 87.4417C31.4307 87.3391 28.3518 86.705 25.4458 85.5667C20.4179 83.61 16.4422 79.6328 14.4875 74.6042C13.3929 71.6877 12.8025 68.6062 12.7416 65.4917C12.5083 61.5 12.5083 60.1917 12.5083 50.0209C12.5083 39.7417 12.5625 38.5417 12.7416 34.5625C12.8039 31.4522 13.3942 28.3751 14.4875 25.4625C16.4401 20.4272 20.4223 16.4466 25.4583 14.4959C28.3693 13.3967 31.4472 12.8048 34.5583 12.7459C38.5375 12.5209 39.8458 12.5209 50.0083 12.5209C60.3416 12.5209 61.5291 12.575 65.4666 12.7459C68.5858 12.8053 71.6718 13.3972 74.5916 14.4959C79.6262 16.4488 83.6076 20.4287 85.5625 25.4625C86.6755 28.4175 87.269 31.5428 87.3166 34.7C87.55 38.6917 87.55 39.9959 87.55 50.1625C87.55 60.3292 87.4916 61.6625 87.3166 65.6084C87.2546 68.7259 86.6628 71.8101 85.5666 74.7292C83.6069 79.7613 79.6252 83.7399 74.5916 85.6959C71.676 86.7883 68.5963 87.3786 65.4833 87.4417C61.5041 87.6709 60.2 87.6709 50.0083 87.6709ZM49.8666 19.1167C39.675 19.1167 38.6166 19.1667 34.6375 19.3459C32.2624 19.3773 29.9103 19.8156 27.6833 20.6417C24.3948 21.9001 21.7926 24.4917 20.5208 27.775C19.6884 30.0263 19.25 32.4041 19.225 34.8042C19.0041 38.8417 19.0041 39.9 19.0041 50.0209C19.0041 60.0209 19.0416 61.2334 19.225 65.2459C19.2623 67.6217 19.7004 69.9742 20.5208 72.2042C21.7945 75.4854 24.3962 78.075 27.6833 79.3334C29.9088 80.1649 32.2618 80.6034 34.6375 80.6292C38.6708 80.8625 39.7333 80.8625 49.8666 80.8625C60.0875 80.8625 61.1458 80.8125 65.0916 80.6292C67.4683 80.6003 69.8222 80.1619 72.05 79.3334C75.3186 78.0641 77.9038 75.4804 79.175 72.2125C80.0058 69.9594 80.4441 67.5805 80.4708 65.1792H80.5166C80.6958 61.1959 80.6958 60.1334 80.6958 49.9542C80.6958 39.775 80.65 38.7042 80.4708 34.725C80.4334 32.3519 79.9953 30.0022 79.175 27.775C77.9067 24.5024 75.3211 21.9138 72.05 20.6417C69.8227 19.8115 67.4685 19.373 65.0916 19.3459C61.0625 19.1167 60.0083 19.1167 49.8666 19.1167ZM50.0083 69.2667C42.2166 69.2718 35.1892 64.5823 32.2036 57.3853C29.2179 50.1883 30.8621 41.9014 36.3693 36.3895C41.8765 30.8775 50.1619 29.2262 57.3615 32.2056C64.561 35.185 69.2566 42.2083 69.2583 50C69.2468 60.6295 60.6377 69.246 50.0083 69.2667ZM50.0083 37.4917C43.1047 37.4917 37.5083 43.0881 37.5083 49.9917C37.5083 56.8953 43.1047 62.4917 50.0083 62.4917C56.9119 62.4917 62.5083 56.8953 62.5083 49.9917C62.4923 43.0948 56.9052 37.5077 50.0083 37.4917ZM70.0083 34.5209C67.5309 34.5117 65.5287 32.4983 65.5333 30.0209C65.5379 27.5435 67.5475 25.5376 70.025 25.5376C72.5024 25.5376 74.512 27.5435 74.5166 30.0209C74.5178 31.2161 74.0429 32.3626 73.1969 33.207C72.3509 34.0514 71.2036 34.5242 70.0083 34.5209Z" fill="white"/>
</svg>
