<svg width="96" height="97" viewBox="0 0 96 97" fill="none" xmlns="http://www.w3.org/2000/svg">
<path d="M50.9167 73.25H39.25V38.25H50.9167V44.0833C53.4035 40.9195 57.1748 39.0333 61.1979 38.9412C68.433 38.9814 74.271 44.869 74.2501 52.1042V73.25H62.5833V53.5625C62.1168 50.3035 59.3218 47.8854 56.0296 47.8925C54.5896 47.938 53.2303 48.5685 52.2654 49.6385C51.3006 50.7084 50.8135 52.1255 50.9167 53.5625V73.25ZM33.4167 73.25H21.75V38.25H33.4167V73.25ZM27.5833 32.4167C24.3617 32.4167 21.75 29.805 21.75 26.5833C21.75 23.3617 24.3617 20.75 27.5833 20.75C30.805 20.75 33.4167 23.3617 33.4167 26.5833C33.4167 28.1304 32.8021 29.6142 31.7081 30.7081C30.6142 31.8021 29.1304 32.4167 27.5833 32.4167Z" fill="white"/>
<rect x="3" y="3" width="90" height="91" rx="12" stroke="white" stroke-width="6"/>
</svg>
