<svg width="94" height="99" viewBox="0 0 94 99" fill="none" xmlns="http://www.w3.org/2000/svg">
<path d="M21.167 98.588C17.8303 98.588 14.732 97.873 11.872 96.443C9.10733 95.013 6.724 93.1063 4.722 90.723C2.72 88.435 1.33767 85.9563 0.575 83.287C0.479667 82.715 0.336667 82.143 0.146 81.571C0.0506669 80.9037 0.00300023 80.2363 0.00300023 79.569C0.00300023 76.6137 0.765667 73.849 2.291 71.275C3.91167 68.701 5.77067 66.7943 7.868 65.555C9.20267 64.7923 10.156 64.411 10.728 64.411C11.4907 64.411 11.872 64.983 11.872 66.127C11.872 67.4617 11.4907 69.416 10.728 71.99C9.96533 74.564 9.584 76.9473 9.584 79.14C9.584 82.572 10.728 85.575 13.016 88.149C15.3993 90.723 18.021 92.01 20.881 92.01C22.4063 92.01 23.884 91.581 25.314 90.723C28.746 88.435 31.749 85.5273 34.323 82C36.897 78.568 39.2803 73.992 41.473 68.272C43.6657 62.4567 45.906 55.0683 48.194 46.107C49.338 41.7217 50.2437 37.67 50.911 33.952C51.5783 30.1387 52.198 26.3253 52.77 22.512C53.4373 18.6987 54.2 14.647 55.058 10.357C50.768 11.0243 46.764 11.6917 43.046 12.359C39.328 13.0263 36.2773 13.5507 33.894 13.932C31.606 14.218 30.319 14.3133 30.033 14.218C28.9843 13.646 28.46 12.4067 28.46 10.5C28.46 8.59333 28.9843 6.68666 30.033 4.78C31.177 2.87333 32.5593 1.92 34.18 1.92C35.5147 1.92 36.5633 2.39667 37.326 3.35C38.0887 4.208 39.2803 4.637 40.901 4.637C41.187 4.637 41.473 4.637 41.759 4.637C42.045 4.54166 42.3787 4.44633 42.76 4.35099C43.8087 4.065 45.8583 3.82666 48.909 3.63599C51.9597 3.44533 55.4393 3.30233 59.348 3.207C60.778 2.15833 62.3033 1.44333 63.924 1.06199C65.5447 0.68066 67.1177 0.489992 68.643 0.489992C72.1703 0.489992 74.3153 1.20499 75.078 2.635C76.6987 2.635 78.224 2.635 79.654 2.635C81.084 2.53966 82.4187 2.49199 83.658 2.49199C85.8507 2.49199 87.662 2.53966 89.092 2.635C90.6173 2.635 91.523 2.73033 91.809 2.921C92.5717 3.207 93.096 3.54067 93.382 3.922C93.668 4.30333 93.811 4.63699 93.811 4.923C93.811 5.68566 93.382 6.30533 92.524 6.782C91.666 7.25866 91.1417 7.30633 90.951 6.92499C90.951 6.44833 89.9023 6.21 87.805 6.21C86.2797 6.21 84.3253 6.353 81.942 6.639C79.5587 6.82966 76.8893 7.11566 73.934 7.497C72.4087 12.2637 70.5497 17.9837 68.357 24.657C66.2597 31.3303 63.3043 39.2907 59.491 48.538C57.1077 54.258 54.772 59.835 52.484 65.269C50.2913 70.6077 47.9557 75.5173 45.477 79.998C43.0937 84.4787 40.4243 88.2443 37.469 91.295C34.5137 94.3457 31.177 96.443 27.459 97.587C25.457 98.2543 23.3597 98.588 21.167 98.588Z" fill="white"/>
</svg>
