<svg width="157" height="24" viewBox="0 0 157 24" fill="none" xmlns="http://www.w3.org/2000/svg">
<path d="M0.528 20.172H3.927C4.323 19.666 4.576 19.083 4.686 18.423C4.796 17.741 4.851 16.377 4.851 14.331V0.899998H9.372V12.78C9.372 14.254 9.339 15.398 9.273 16.212C9.229 17.026 9.097 17.95 8.877 18.984C8.459 20.942 7.414 22.614 5.742 24H0.528V20.172ZM19.8057 10.602H17.3307C17.0007 10.998 16.7257 11.548 16.5057 12.252C16.3077 12.956 16.2087 13.638 16.2087 14.298H20.9277C20.9717 13.638 20.8837 12.956 20.6637 12.252C20.4437 11.526 20.1577 10.976 19.8057 10.602ZM24.2937 20.535V24H15.9117C14.3717 22.966 13.2827 21.69 12.6447 20.172C12.0287 18.632 11.7207 17.081 11.7207 15.519C11.7207 11.911 13.0847 9.117 15.8127 7.137H21.1587C22.6327 8.215 23.6337 9.359 24.1617 10.569C24.6897 11.779 24.9537 13 24.9537 14.232C24.9537 15.464 24.8547 16.52 24.6567 17.4H16.4397C16.5057 17.906 16.6927 18.489 17.0007 19.149C17.3307 19.787 17.6827 20.249 18.0567 20.535H24.2937ZM31.59 0.899998H36.342V4.365H33.372C32.624 4.827 32.25 5.751 32.25 7.137H35.682V10.602H32.25V24H27.861V10.602H26.046V7.137H27.861C27.861 4.277 29.104 2.198 31.59 0.899998ZM44.3623 10.602H41.8873C41.5573 10.998 41.2823 11.548 41.0623 12.252C40.8643 12.956 40.7653 13.638 40.7653 14.298H45.4843C45.5283 13.638 45.4403 12.956 45.2203 12.252C45.0003 11.526 44.7143 10.976 44.3623 10.602ZM48.8503 20.535V24H40.4683C38.9283 22.966 37.8393 21.69 37.2013 20.172C36.5853 18.632 36.2773 17.081 36.2773 15.519C36.2773 11.911 37.6413 9.117 40.3693 7.137H45.7153C47.1893 8.215 48.1903 9.359 48.7183 10.569C49.2463 11.779 49.5103 13 49.5103 14.232C49.5103 15.464 49.4113 16.52 49.2133 17.4H40.9963C41.0623 17.906 41.2493 18.489 41.5573 19.149C41.8873 19.787 42.2393 20.249 42.6133 20.535H48.8503ZM51.7577 24V7.137H54.8927L55.7177 8.919C56.5977 7.731 57.7087 7.137 59.0507 7.137H60.3377V11.559H56.1467V24H51.7577ZM63.5583 7.137H70.8513V10.602H65.7033L68.8383 15.255C70.2463 17.257 71.0273 18.632 71.1813 19.38C71.2693 19.732 71.3133 20.095 71.3133 20.469C71.3133 22.031 70.7303 23.208 69.5643 24H61.1493V20.535H67.1883L63.6573 15.354C63.5033 15.112 63.2613 14.771 62.9313 14.331C62.6233 13.891 62.3813 13.539 62.2053 13.275C62.0293 12.989 61.9083 12.78 61.8423 12.648C61.7763 12.516 61.6883 12.351 61.5783 12.153C61.4683 11.933 61.3913 11.746 61.3473 11.592C61.2593 11.174 61.2153 10.833 61.2153 10.569C61.2153 8.963 61.9963 7.819 63.5583 7.137ZM83.1551 24H75.9611C73.7611 21.954 72.6611 19.16 72.6611 15.618C72.6611 13.836 72.9031 12.285 73.3871 10.965C73.8931 9.645 74.6851 8.369 75.7631 7.137H83.4851C84.6291 8.457 85.4101 9.744 85.8281 10.998C86.2461 12.23 86.4551 13.77 86.4551 15.618C86.4551 19.16 85.3551 21.954 83.1551 24ZM78.3041 20.535H80.8121C81.6041 18.995 82.0001 17.246 82.0001 15.288C82.0001 13.33 81.5931 11.768 80.7791 10.602H78.3041C77.5121 11.724 77.1161 13.319 77.1161 15.387C77.1161 17.433 77.5121 19.149 78.3041 20.535ZM96.1434 7.137H99.6414C100.609 8.369 101.269 9.601 101.621 10.833C101.973 12.065 102.149 13.605 102.149 15.453V24H97.7604V15.123C97.7604 13.033 97.4744 11.526 96.9024 10.602H93.2064V24H88.8174V7.137H92.2494L92.8434 8.325C93.3274 7.885 93.7784 7.577 94.1964 7.401C94.6364 7.225 95.2854 7.137 96.1434 7.137ZM110.316 24V0.899998H114.837V20.172H121.701V24H110.316ZM129.624 24H126.159C125.191 22.768 124.531 21.536 124.179 20.304C123.827 19.072 123.651 17.532 123.651 15.684V7.137H128.04V16.014C128.04 18.016 128.436 19.523 129.228 20.535H132.297V7.137H136.686V24H133.221L132.627 22.812C131.791 23.604 130.79 24 129.624 24ZM139.51 7.137H143.866V24H139.51V7.137ZM138.355 3.309L139.675 5.982L145.549 3.408L143.998 0.0089981L138.355 3.309ZM148.346 7.137H155.639V10.602H150.491L153.626 15.255C155.034 17.257 155.815 18.632 155.969 19.38C156.057 19.732 156.101 20.095 156.101 20.469C156.101 22.031 155.518 23.208 154.352 24H145.937V20.535H151.976L148.445 15.354C148.291 15.112 148.049 14.771 147.719 14.331C147.411 13.891 147.169 13.539 146.993 13.275C146.817 12.989 146.696 12.78 146.63 12.648C146.564 12.516 146.476 12.351 146.366 12.153C146.256 11.933 146.179 11.746 146.135 11.592C146.047 11.174 146.003 10.833 146.003 10.569C146.003 8.963 146.784 7.819 148.346 7.137Z" fill="white"/>
</svg>
